<svg width="42" height="42" viewBox="0 0 42 42" fill="none" xmlns="http://www.w3.org/2000/svg">
<g id="&#240;&#159;&#166;&#134; icon &#34;tick circle&#34;">
<path id="Vector" d="M21 0.0545502C9.429 0.0545502 0 9.29783 0 20.6409C0 31.984 9.429 41.2273 21 41.2273C32.571 41.2273 42 31.984 42 20.6409C42 9.29783 32.571 0.0545502 21 0.0545502ZM31.038 15.906L19.131 27.5785C18.837 27.8667 18.438 28.0314 18.018 28.0314C17.598 28.0314 17.199 27.8667 16.905 27.5785L10.962 21.7526C10.353 21.1556 10.353 20.1674 10.962 19.5704C11.571 18.9734 12.579 18.9734 13.188 19.5704L18.018 24.3053L28.812 13.7239C29.421 13.1269 30.429 13.1269 31.038 13.7239C31.647 14.3209 31.647 15.2885 31.038 15.906Z" fill="url(#paint0_linear_53_873)"/>
</g>
<defs>
<linearGradient id="paint0_linear_53_873" x1="0" y1="0.0545502" x2="41.1646" y2="42.0462" gradientUnits="userSpaceOnUse">
<stop stop-color="#009687"/>
<stop offset="1" stop-color="#08C9B6"/>
</linearGradient>
</defs>
</svg>
