<svg width="42" height="42" viewBox="0 0 42 42" fill="none" xmlns="http://www.w3.org/2000/svg">
<g id="&#240;&#159;&#166;&#134; icon &#34;close circle&#34;">
<path id="Vector" d="M21 0.774246C9.429 0.774246 0 10.0175 0 21.3606C0 32.7037 9.429 41.947 21 41.947C32.571 41.947 42 32.7037 42 21.3606C42 10.0175 32.571 0.774246 21 0.774246ZM28.056 26.0955C28.665 26.6925 28.665 27.6806 28.056 28.2776C27.741 28.5864 27.342 28.7305 26.943 28.7305C26.544 28.7305 26.145 28.5864 25.83 28.2776L21 23.5428L16.17 28.2776C15.855 28.5864 15.456 28.7305 15.057 28.7305C14.658 28.7305 14.259 28.5864 13.944 28.2776C13.335 27.6806 13.335 26.6925 13.944 26.0955L18.774 21.3606L13.944 16.6257C13.335 16.0287 13.335 15.0406 13.944 14.4436C14.553 13.8466 15.561 13.8466 16.17 14.4436L21 19.1785L25.83 14.4436C26.439 13.8466 27.447 13.8466 28.056 14.4436C28.665 15.0406 28.665 16.0287 28.056 16.6257L23.226 21.3606L28.056 26.0955Z" fill="url(#paint0_linear_54_1489)"/>
</g>
<defs>
<linearGradient id="paint0_linear_54_1489" x1="0" y1="0.774246" x2="41.1646" y2="42.7659" gradientUnits="userSpaceOnUse">
<stop stop-color="#009687"/>
<stop offset="1" stop-color="#08C9B6"/>
</linearGradient>
</defs>
</svg>
